<svg xmlns="http://www.w3.org/2000/svg" xmlns:xlink="http://www.w3.org/1999/xlink" width="500" zoomAndPan="magnify" viewBox="0 0 375 374.999991" height="500" preserveAspectRatio="xMidYMid meet" version="1.0"><defs><clipPath id="82dad44066"><path d="M 41 71 L 336 71 L 336 304 L 41 304 Z M 41 71 " clip-rule="nonzero"/></clipPath><clipPath id="5c02dcbc0f"><path d="M 309.492188 44.230469 L 356.578125 270.382812 L 65.8125 330.917969 L 18.726562 104.765625 Z M 309.492188 44.230469 " clip-rule="nonzero"/></clipPath><clipPath id="6eb3940bd0"><path d="M 309.492188 44.230469 L 356.578125 270.382812 L 65.8125 330.917969 L 18.726562 104.765625 Z M 309.492188 44.230469 " clip-rule="nonzero"/></clipPath><clipPath id="911d3878ba"><path d="M 121 96 L 258 96 L 258 292 L 121 292 Z M 121 96 " clip-rule="nonzero"/></clipPath><clipPath id="150e42a78d"><path d="M 174.914062 92.773438 L 261.0625 121.308594 L 202.339844 298.585938 L 116.191406 270.050781 Z M 174.914062 92.773438 " clip-rule="nonzero"/></clipPath><clipPath id="2efe2725f7"><path d="M 174.914062 92.773438 L 261.0625 121.308594 L 202.339844 298.585938 L 116.191406 270.050781 Z M 174.914062 92.773438 " clip-rule="nonzero"/></clipPath></defs><g clip-path="url(#82dad44066)"><g clip-path="url(#5c02dcbc0f)"><g clip-path="url(#6eb3940bd0)"><path fill="#f4f4f9" d="M 332.042969 154.558594 C 328.734375 142.199219 322.507812 130.820312 316.136719 119.648438 C 305.371094 100.578125 292.054688 80.75 271.328125 73.859375 C 255.765625 68.828125 238.785156 71.996094 223.015625 76.566406 C 207.246094 81.136719 191.558594 86.972656 175.226562 87.066406 C 162.382812 87.167969 150.078125 83.667969 137.304688 83.203125 C 125.273438 82.769531 113.257812 85.085938 101.605469 88.246094 C 91.679688 90.863281 81.582031 94.4375 73.589844 101.0625 C 66.265625 107.363281 61.078125 115.976562 57.019531 124.722656 C 48.277344 143.632812 43.359375 164.132812 42.007812 184.992188 C 41.066406 199.886719 41.890625 215.332031 47.011719 229.332031 C 53.828125 247.941406 67.492188 263.285156 82.796875 275.902344 C 94.300781 285.265625 106.855469 293.492188 121.074219 298.25 C 133.914062 302.558594 147.402344 303.792969 161.019531 303.898438 C 190.65625 304.160156 220.882812 298.417969 247.054688 284.699219 C 265.605469 274.957031 281.765625 261.671875 297.925781 248.386719 C 312.503906 236.347656 326.949219 220.109375 329.832031 210.136719 C 336.367188 188.566406 338.496094 185.550781 332.042969 154.558594 Z M 332.042969 154.558594 " fill-opacity="1" fill-rule="nonzero"/></g></g></g><g clip-path="url(#911d3878ba)"><g clip-path="url(#150e42a78d)"><g clip-path="url(#2efe2725f7)"><path fill="#202427" d="M 182.21875 130.25 C 184.148438 126.042969 186.339844 121.949219 188.453125 117.828125 C 189.445312 115.882812 190.449219 113.941406 191.367188 111.960938 C 192.515625 109.496094 193.777344 106.910156 194.261719 104.214844 C 194.460938 103.113281 195.214844 102.167969 196.441406 102.246094 C 197.460938 102.308594 198.605469 103.3125 198.410156 104.421875 C 197.492188 109.578125 194.859375 114.355469 192.503906 118.976562 C 190.378906 123.160156 188.125 127.292969 186.167969 131.558594 C 185.707031 132.574219 184.707031 133.273438 183.542969 132.878906 C 182.558594 132.539062 181.75 131.28125 182.21875 130.25 Z M 199 137.414062 C 203.988281 129.242188 208.121094 120.554688 211.289062 111.515625 C 212.171875 108.992188 208.234375 107.6875 207.347656 110.210938 C 204.289062 118.914062 200.347656 127.238281 195.542969 135.113281 C 194.15625 137.394531 197.609375 139.703125 199 137.414062 Z M 222.125 115.117188 C 217.65625 123.15625 213.421875 131.425781 208.480469 139.183594 C 204.65625 145.175781 200.019531 151.519531 193.234375 154.316406 C 190.882812 155.285156 188.320312 155.777344 185.769531 155.671875 C 182.167969 155.511719 179.488281 152.960938 177.34375 150.25 C 172.585938 144.222656 173.523438 135.234375 174.757812 128.160156 C 176.492188 118.289062 180.472656 108.859375 185.246094 100.101562 C 186.515625 97.769531 183.078125 95.445312 181.796875 97.792969 C 177.042969 106.507812 173.058594 115.75 171.078125 125.511719 C 169.5 133.296875 168.171875 143.382812 172.535156 150.5625 C 174.0625 153.078125 176.171875 155.601562 178.667969 157.390625 C 173.175781 169.75 167.847656 182.203125 161.859375 194.328125 C 157.6875 192.546875 153.164062 192.46875 149.53125 195.636719 C 147.890625 197.066406 147 198.910156 146.121094 200.824219 C 140.679688 212.730469 135.246094 224.644531 129.804688 236.550781 C 127.550781 241.488281 125.304688 246.421875 123.046875 251.359375 C 122.164062 253.289062 121.425781 255.195312 121.503906 257.394531 C 121.597656 260.011719 122.628906 262.617188 124.460938 264.515625 C 125.828125 265.929688 127.5 266.75 129.253906 267.554688 C 130.554688 268.148438 131.847656 268.730469 133.144531 269.328125 C 138.265625 271.5 144.421875 269.398438 146.980469 264.40625 C 147.507812 263.375 147.96875 262.304688 148.445312 261.25 C 150.910156 255.863281 153.367188 250.46875 155.832031 245.085938 C 161.023438 233.726562 166.238281 222.375 171.394531 211.003906 C 172.683594 208.164062 172.945312 205.09375 171.796875 202.136719 C 170.589844 199.058594 168.246094 197.394531 165.601562 196.054688 C 171.546875 183.972656 176.878906 171.597656 182.34375 159.300781 C 185.132812 160.175781 188.351562 159.910156 191.128906 159.324219 C 198.414062 157.800781 203.824219 152.527344 208.210938 146.828125 C 211.535156 142.507812 214.246094 137.761719 216.898438 133.011719 C 219.796875 127.8125 222.6875 122.609375 225.582031 117.417969 C 226.875 115.097656 223.425781 112.777344 222.125 115.117188 Z M 254.757812 138.558594 C 252.667969 143.65625 250.144531 148.605469 247.800781 153.597656 C 243.542969 162.671875 239.273438 171.746094 235.015625 180.808594 C 231.519531 188.261719 227.746094 195.628906 224.519531 203.199219 C 221.761719 209.679688 219.085938 216.199219 216.367188 222.703125 C 216.59375 223.019531 216.808594 223.34375 216.984375 223.714844 C 218.304688 226.394531 218.042969 229.292969 216.839844 231.925781 C 211.648438 243.292969 206.449219 254.671875 201.265625 266.042969 C 198.722656 271.605469 196.183594 277.160156 193.648438 282.722656 C 193.15625 283.804688 192.679688 284.890625 192.171875 285.953125 C 190.066406 290.425781 185.054688 292.683594 180.375 290.734375 C 179.097656 290.15625 177.835938 289.574219 176.558594 288.996094 C 175.109375 288.328125 173.484375 287.742188 172.226562 286.734375 C 170.140625 285.050781 168.894531 282.539062 168.839844 279.859375 C 168.800781 277.921875 169.503906 276.320312 170.28125 274.621094 C 172.542969 269.675781 174.796875 264.738281 177.050781 259.792969 C 182.597656 247.644531 188.136719 235.5 193.6875 223.351562 C 194.246094 222.128906 194.757812 220.734375 195.542969 219.652344 C 197.128906 217.484375 199.582031 216.121094 202.253906 215.9375 C 202.714844 215.90625 203.152344 215.925781 203.585938 215.972656 C 204.835938 213.042969 206.082031 210.113281 207.332031 207.183594 C 205.417969 206.355469 203.5 205.527344 201.582031 204.707031 C 200.597656 204.28125 199.839844 203.195312 200.265625 202.085938 C 203.308594 194.191406 206.367188 186.304688 209.746094 178.539062 C 215.667969 164.945312 222.605469 151.628906 231.976562 140.058594 C 236.019531 135.070312 240.457031 129.835938 246.273438 126.875 C 248.613281 125.6875 252.617188 123.980469 255.253906 124.964844 C 256.816406 125.539062 257.214844 126.855469 256.902344 127.996094 C 256.9375 128.066406 256.984375 128.128906 257.019531 128.199219 C 257.472656 129.1875 257.160156 130.210938 256.980469 131.230469 C 256.515625 133.746094 255.726562 136.1875 254.757812 138.558594 Z M 252.664062 131.734375 C 252.824219 131.074219 252.902344 130.394531 253.054688 129.734375 C 253.042969 129.796875 253.441406 130.347656 253.144531 129.78125 C 252.984375 129.476562 252.785156 129.199219 252.597656 128.910156 C 251.484375 129.136719 250.003906 129.753906 249.523438 129.953125 C 248.269531 130.472656 247.054688 131.117188 245.941406 131.875 C 243.550781 133.484375 241.453125 135.53125 239.511719 137.636719 C 222.835938 155.660156 213.609375 179.023438 204.886719 201.625 C 206.828125 202.460938 208.765625 203.296875 210.695312 204.128906 C 211.65625 204.546875 212.484375 205.65625 212.011719 206.753906 C 210.527344 210.234375 209.046875 213.710938 207.5625 217.191406 C 207.589844 217.199219 207.605469 217.207031 207.628906 217.222656 C 209.429688 218.042969 211.382812 218.777344 213.105469 219.796875 C 214.242188 217.070312 215.382812 214.351562 216.519531 211.628906 C 221.238281 200.34375 226.460938 189.335938 231.664062 178.261719 C 235.875 169.296875 240.09375 160.324219 244.304688 151.363281 C 246.320312 147.074219 248.429688 142.816406 250.316406 138.464844 C 251.257812 136.269531 252.101562 134.042969 252.664062 131.734375 Z M 252.664062 131.734375 " fill-opacity="1" fill-rule="nonzero"/></g></g></g></svg>