<svg xmlns="http://www.w3.org/2000/svg" xmlns:xlink="http://www.w3.org/1999/xlink" width="500" zoomAndPan="magnify" viewBox="0 0 375 374.999991" height="500" preserveAspectRatio="xMidYMid meet" version="1.0"><defs><clipPath id="e2313c21ec"><path d="M 65 20 L 296 20 L 296 350 L 65 350 Z M 65 20 " clip-rule="nonzero"/></clipPath><clipPath id="cf7afdf0ff"><path d="M 155.855469 13.234375 L 301.804688 61.582031 L 202.28125 362.027344 L 56.332031 313.679688 Z M 155.855469 13.234375 " clip-rule="nonzero"/></clipPath><clipPath id="929dfcc597"><path d="M 155.855469 13.234375 L 301.804688 61.582031 L 202.28125 362.027344 L 56.332031 313.679688 Z M 155.855469 13.234375 " clip-rule="nonzero"/></clipPath></defs><g clip-path="url(#e2313c21ec)"><g clip-path="url(#cf7afdf0ff)"><g clip-path="url(#929dfcc597)"><path fill="#202427" d="M 168.234375 76.757812 C 171.503906 69.625 175.21875 62.683594 178.796875 55.703125 C 180.484375 52.40625 182.183594 49.113281 183.738281 45.761719 C 185.683594 41.578125 187.828125 37.199219 188.648438 32.628906 C 188.984375 30.765625 190.257812 29.160156 192.339844 29.289062 C 194.066406 29.398438 196.007812 31.097656 195.679688 32.980469 C 194.117188 41.722656 189.660156 49.8125 185.664062 57.648438 C 182.0625 64.738281 178.246094 71.742188 174.925781 78.976562 C 174.144531 80.691406 172.449219 81.878906 170.480469 81.210938 C 168.808594 80.640625 167.441406 78.503906 168.234375 76.757812 Z M 196.675781 88.898438 C 205.132812 75.046875 212.136719 60.320312 217.503906 45.003906 C 219.003906 40.726562 212.328125 38.511719 210.828125 42.792969 C 205.644531 57.546875 198.960938 71.652344 190.816406 84.996094 C 188.46875 88.863281 194.316406 92.777344 196.675781 88.898438 Z M 235.875 51.105469 C 228.296875 64.734375 221.117188 78.746094 212.742188 91.898438 C 206.265625 102.054688 198.40625 112.808594 186.902344 117.546875 C 182.917969 119.191406 178.574219 120.023438 174.25 119.84375 C 168.148438 119.570312 163.601562 115.246094 159.96875 110.652344 C 151.90625 100.4375 153.496094 85.203125 155.589844 73.214844 C 158.527344 56.480469 165.273438 40.5 173.367188 25.65625 C 175.515625 21.707031 169.6875 17.769531 167.515625 21.742188 C 159.460938 36.515625 152.707031 52.179688 149.351562 68.726562 C 146.675781 81.921875 144.425781 99.011719 151.824219 111.179688 C 154.414062 115.449219 157.984375 119.726562 162.21875 122.761719 C 152.90625 143.707031 143.875 164.808594 133.722656 185.363281 C 126.652344 182.34375 118.988281 182.210938 112.828125 187.582031 C 110.050781 190.003906 108.539062 193.128906 107.050781 196.375 C 97.828125 216.558594 88.621094 236.746094 79.398438 256.929688 C 75.574219 265.296875 71.765625 273.65625 67.941406 282.023438 C 66.445312 285.300781 65.195312 288.527344 65.324219 292.257812 C 65.484375 296.691406 67.234375 301.109375 70.335938 304.328125 C 72.65625 306.726562 75.488281 308.109375 78.464844 309.472656 C 80.664062 310.484375 82.859375 311.472656 85.058594 312.484375 C 93.738281 316.164062 104.175781 312.605469 108.507812 304.140625 C 109.402344 302.394531 110.183594 300.578125 110.992188 298.789062 C 115.167969 289.664062 119.332031 280.519531 123.507812 271.394531 C 132.304688 252.140625 141.148438 232.902344 149.890625 213.625 C 152.074219 208.816406 152.515625 203.609375 150.570312 198.601562 C 148.527344 193.378906 144.550781 190.5625 140.066406 188.285156 C 150.144531 167.808594 159.183594 146.839844 168.445312 125.992188 C 173.171875 127.476562 178.625 127.027344 183.335938 126.035156 C 195.6875 123.453125 204.855469 114.519531 212.289062 104.859375 C 217.925781 97.535156 222.519531 89.488281 227.011719 81.441406 C 231.925781 72.625 236.824219 63.804688 241.730469 55.003906 C 243.921875 51.070312 238.078125 47.140625 235.875 51.105469 Z M 291.179688 90.835938 C 287.640625 99.480469 283.367188 107.863281 279.390625 116.332031 C 272.171875 131.710938 264.9375 147.085938 257.722656 162.449219 C 251.792969 175.078125 245.402344 187.570312 239.933594 200.402344 C 235.253906 211.386719 230.722656 222.433594 226.117188 233.457031 C 226.496094 233.996094 226.859375 234.542969 227.164062 235.171875 C 229.394531 239.714844 228.953125 244.625 226.917969 249.089844 C 218.113281 268.359375 209.304688 287.640625 200.515625 306.917969 C 196.207031 316.34375 191.902344 325.753906 187.609375 335.1875 C 186.773438 337.015625 185.964844 338.859375 185.101562 340.664062 C 181.539062 348.246094 173.039062 352.066406 165.109375 348.765625 C 162.945312 347.785156 160.804688 346.796875 158.640625 345.816406 C 156.183594 344.6875 153.429688 343.695312 151.296875 341.984375 C 147.761719 339.132812 145.648438 334.875 145.554688 330.332031 C 145.488281 327.046875 146.6875 324.332031 148 321.457031 C 151.832031 313.074219 155.65625 304.707031 159.472656 296.320312 C 168.878906 275.734375 178.269531 255.144531 187.671875 234.558594 C 188.621094 232.484375 189.488281 230.121094 190.820312 228.289062 C 193.503906 224.613281 197.660156 222.304688 202.195312 221.992188 C 202.96875 221.9375 203.71875 221.96875 204.449219 222.046875 C 206.570312 217.085938 208.675781 212.117188 210.800781 207.15625 C 207.558594 205.75 204.300781 204.34375 201.054688 202.957031 C 199.382812 202.238281 198.101562 200.394531 198.824219 198.511719 C 203.980469 185.132812 209.164062 171.761719 214.890625 158.605469 C 224.929688 135.5625 236.6875 112.988281 252.570312 93.382812 C 259.421875 84.929688 266.941406 76.054688 276.804688 71.039062 C 280.765625 69.023438 287.554688 66.132812 292.027344 67.796875 C 294.667969 68.769531 295.34375 71.003906 294.820312 72.9375 C 294.878906 73.054688 294.957031 73.164062 295.019531 73.28125 C 295.78125 74.953125 295.257812 76.6875 294.949219 78.414062 C 294.160156 82.683594 292.824219 86.820312 291.179688 90.835938 Z M 287.632812 79.269531 C 287.902344 78.15625 288.039062 77 288.292969 75.882812 C 288.273438 75.988281 288.953125 76.921875 288.449219 75.964844 C 288.175781 75.445312 287.835938 74.972656 287.519531 74.488281 C 285.632812 74.867188 283.128906 75.914062 282.308594 76.253906 C 280.1875 77.132812 278.128906 78.230469 276.238281 79.511719 C 272.1875 82.238281 268.636719 85.707031 265.34375 89.277344 C 237.078125 119.820312 221.4375 159.421875 206.65625 197.730469 C 209.945312 199.144531 213.230469 200.5625 216.5 201.976562 C 218.128906 202.679688 219.53125 204.5625 218.734375 206.421875 C 216.21875 212.324219 213.707031 218.214844 211.191406 224.117188 C 211.234375 224.132812 211.265625 224.140625 211.304688 224.171875 C 214.355469 225.558594 217.664062 226.804688 220.585938 228.527344 C 222.507812 223.914062 224.449219 219.300781 226.371094 214.683594 C 234.371094 195.5625 243.21875 176.898438 252.039062 158.128906 C 259.179688 142.9375 266.324219 127.730469 273.464844 112.539062 C 276.878906 105.269531 280.453125 98.054688 283.65625 90.683594 C 285.25 86.960938 286.679688 83.1875 287.632812 79.269531 Z M 287.632812 79.269531 " fill-opacity="1" fill-rule="nonzero"/></g></g></g></svg>